<svg width="160" height="100" viewBox="0 0 160 100" fill="none" xmlns="http://www.w3.org/2000/svg">
<g clip-path="url(#clip0_25262_18261)">
<rect width="160" height="100" rx="8" fill="white"/>
<path d="M106.498 33.493C103.734 32.4867 100.812 31.9813 97.8706 32.0005C88.3506 32.0005 81.6321 36.8002 81.5825 43.6774C81.523 48.7349 86.3623 51.581 90.0166 53.2767C93.7701 55.0121 95.0245 56.103 95.0146 57.6649C94.9898 60.03 92.0148 61.101 89.253 61.101C85.455 61.101 83.3725 60.5704 80.1743 59.2416L78.9893 58.6912L77.6456 66.6146C79.9562 67.5815 84.1212 68.4096 88.43 68.474C98.5499 68.474 105.164 63.7091 105.244 56.3807C105.323 52.3495 102.715 49.2902 97.2062 46.7714C93.8643 45.1352 91.7818 44.0394 91.7818 42.3783C91.7818 40.9107 93.5618 39.3438 97.2806 39.3438C99.7537 39.2845 102.212 39.7457 104.495 40.6974L105.387 41.0991L106.731 33.4434L106.498 33.493ZM131.205 32.6501H123.768C121.452 32.6501 119.722 33.2798 118.706 35.5804L104.401 67.9782H114.521L116.544 62.6728L128.89 62.6827C129.192 63.9223 130.08 67.9782 130.08 67.9782H139L131.205 32.6501ZM67.8975 32.3526H77.5315L71.5072 67.7005H61.8682L67.8975 32.3427V32.3526ZM43.4083 51.8339L44.4099 56.7426L53.8357 32.6501H64.0449L48.8674 67.9286H38.683L30.353 38.0497C30.2187 37.5573 29.8988 37.1361 29.4605 36.8746C26.4645 35.3183 23.2866 34.1408 20 33.369L20.124 32.6253H35.6485C37.7508 32.7046 39.4466 33.369 40.0267 35.6201L43.4083 51.8487V51.8339ZM119.31 55.4386L123.153 45.5517C123.104 45.6508 123.947 43.5088 124.432 42.18L125.092 45.2294L127.318 55.4286H119.31V55.4386Z" fill="#1A1F71"/>
<path d="M0 12C0 5.37258 5.37258 0 12 0H148C154.627 0 160 5.37258 160 12V15H0V12Z" fill="#1A1F71"/>
<path d="M0 84H160V91C160 95.4183 156.418 99 152 99H8C3.58172 99 0 95.4183 0 91V84Z" fill="#F7B600"/>
<path fill-rule="evenodd" clip-rule="evenodd" d="M152 2H8C4.68629 2 2 4.68629 2 8V92C2 95.3137 4.68629 98 8 98H152C155.314 98 158 95.3137 158 92V8C158 4.68629 155.314 2 152 2ZM8 0C3.58172 0 0 3.58172 0 8V92C0 96.4183 3.58172 100 8 100H152C156.418 100 160 96.4183 160 92V8C160 3.58172 156.418 0 152 0H8Z" fill="#DDDDD8"/>
</g>
<defs>
<clipPath id="clip0_25262_18261">
<rect width="160" height="100" fill="white"/>
</clipPath>
</defs>
</svg>
